<?xml version="1.0" encoding="UTF-8" standalone="no"?>
<svg
   width="261.754"
   height="180.41702"
   viewBox="0 0 245.3731 169.12618"
   version="1.1"
   id="svg4394"
   sodipodi:docname="logo.svg"
   inkscape:version="1.3.2 (091e20e, 2023-11-25)"
   inkscape:export-filename="vue_bashless_logo_002.png"
   inkscape:export-xdpi="299.831"
   inkscape:export-ydpi="299.831"
   xmlns:inkscape="http://www.inkscape.org/namespaces/inkscape"
   xmlns:sodipodi="http://sodipodi.sourceforge.net/DTD/sodipodi-0.dtd"
   xmlns="http://www.w3.org/2000/svg"
   xmlns:svg="http://www.w3.org/2000/svg">
  <defs
     id="defs4398" />
  <sodipodi:namedview
     id="namedview4396"
     pagecolor="#505050"
     bordercolor="#eeeeee"
     borderopacity="1"
     inkscape:showpageshadow="0"
     inkscape:pageopacity="0"
     inkscape:pagecheckerboard="0"
     inkscape:deskcolor="#505050"
     inkscape:document-units="px"
     showgrid="false"
     inkscape:zoom="1.2498908"
     inkscape:cx="148.01293"
     inkscape:cy="8.8007688"
     inkscape:window-width="1440"
     inkscape:window-height="847"
     inkscape:window-x="0"
     inkscape:window-y="25"
     inkscape:window-maximized="1"
     inkscape:current-layer="svg4394"
     showguides="false" />
  <g
     id="g438"
     style="stroke:none;stroke-width:0.999126;stroke-dasharray:none;stroke-opacity:1"
     transform="matrix(0.97758175,0,0,0.97758175,-3.910327,-1.9505712)">
    <g
       id="g10334"
       style="stroke:none;stroke-width:0.999126;stroke-dasharray:none;stroke-opacity:1">
      <path
         d="m 205,92 c 0,0 1,26 1,26 0,0 0,57 0,57 0,0 -46,0 -46,0 0,0 0,-32 0,-32 0,-1.68 -0.13,-5.08 0.53,-6.55 1.04,-2.29 3.66,-2.12 5.79,-2.26 3.74,-0.23 11.32,0.55 14.07,-1.79 1.9,-1.61 6.42,-9.81 7.89,-12.4 0,0 16.72,-28 16.72,-28 z"
         id="path4532"
         style="fill:#3daf7d;fill-opacity:1;stroke:none;stroke-width:0.999126;stroke-dasharray:none;stroke-opacity:1" />
      <path
         d="m 254,6 c 0,0 1,17 1,17 0,0 0,34 0,34 0,0 0,118 0,118 0,0 -45.86,0 -45.86,0 0,0 0,-84 0,-84 0,0 0,-7 0,-7 0,0 13.46,-24 13.46,-24 z"
         id="path4530"
         style="fill:#314659;fill-opacity:1;stroke:none;stroke-width:0.999126;stroke-dasharray:none;stroke-opacity:1" />
      <path
         d="m 133,132 c 0,0 20.4,-37 20.4,-37 0,0 37,-64 37,-64 0,0 11.59,-20 11.59,-20 0,0 5.54,-8.01 5.54,-8.01 0,0 7.47,-0.99 7.47,-0.99 0,0 39,0 39,0 0,0 -23.58,41 -23.58,41 0,0 -33.57,58 -33.57,58 0,0 -12.05,21 -12.05,21 0,0 -6.19,8.98 -6.19,8.98 0,0 -7.61,1.02 -7.61,1.02 z"
         id="path4528"
         style="fill:#314659;fill-opacity:1;stroke:none;stroke-width:0.999126;stroke-dasharray:none;stroke-opacity:1" />
      <path
         d="m 82,131 c 0,0 21.58,-37 21.58,-37 0,0 37.82,-63 37.82,-63 0,0 11.4,-19 11.4,-19 0,0 6.53,-8.98 6.53,-8.98 0,0 7.67,-1.02 7.67,-1.02 0,0 37,0 37,0 0,0 -19.58,35 -19.58,35 0,0 -37,64 -37,64 0,0 -11.57,20 -11.57,20 0,0 -6.23,8.98 -6.23,8.98 0,0 -7.62,1.02 -7.62,1.02 0,0 -40,0 -40,0 z"
         id="path7357"
         style="fill:#3daf7d;fill-opacity:1;stroke:none;stroke-width:0.999126;stroke-dasharray:none;stroke-opacity:1" />
      <path
         d="m 52,2 c 0,0 40,0 40,0 2.01,0.01 4.67,-0.17 6.39,0.99 1.9,1.28 4.91,6.84 6.21,9.01 0,0 11.25,19 11.25,19 2.33,4.06 10.72,15.95 10.06,20 -0.33,2.03 -5.01,9.72 -6.33,12 0,0 -15.58,26 -15.58,26 0,0 -2,0 -2,0 0,0 -26.01,-45 -26.01,-45 z"
         id="path4526"
         style="fill:#314659;fill-opacity:1;stroke:none;stroke-width:0.999126;stroke-dasharray:none;stroke-opacity:1" />
      <path
         d="m 4,2 c 0,0 37,0 37,0 11.07,0.02 8.33,1.65 17.32,16 0,0 30.68,53 30.68,53 2.61,4.54 11.07,17.38 10.63,22 -0.3,3.07 -3.73,8.17 -5.35,11 0,0 -15.28,26 -15.28,26 0,0 -2,0 -2,0 0,0 -23.99,-42 -23.99,-42 0,0 -25.07,-44 -25.07,-44 z"
         id="Sélection"
         style="fill:#3daf7d;fill-opacity:1;stroke:none;stroke-width:0.999126;stroke-dasharray:none;stroke-opacity:1" />
    </g>
  </g>
</svg>
